<?xml version="1.0" encoding="iso-8859-1"?>
<!-- Generator: Adobe Illustrator 19.0.0, SVG Export Plug-In . SVG Version: 6.00 Build 0)  -->
<svg version="1.1" id="Capa_1" xmlns="http://www.w3.org/2000/svg" xmlns:xlink="http://www.w3.org/1999/xlink" x="0px" y="0px"
	 viewBox="0 0 487 487" style="enable-background:new 0 0 487 487;" xml:space="preserve">
<g>
	<g>
		<path d="M79.8,155.1v178.1c0,20.4,16.6,37,37,37h61.3v-22.9c0-1.9,0.1-3.7,0.4-5.6h-61.6c-4.7,0-8.5-3.8-8.5-8.5V221.3h350.1
			v111.9c0,4.7-3.8,8.5-8.5,8.5h-61.6c0.2,1.8,0.3,3.7,0.3,5.6v22.9H450c20.4,0,37-16.6,37-37V155.1c0-20.4-16.6-37-37-37H116.8
			C96.3,118.1,79.8,134.6,79.8,155.1z M458.5,155.1V174H108.3v-18.9c0-4.7,3.8-8.5,8.5-8.5H450C454.7,146.6,458.5,150.4,458.5,155.1
			z"/>
		<path d="M37,291.8h18.4v-28.5H37c-4.7,0-8.5-3.8-8.5-8.5V76.6c0-4.7,3.8-8.5,8.5-8.5h333.2c4.7,0,8.5,3.8,8.5,8.5v17.1h28.5V76.6
			c0-20.4-16.6-37-37-37H37c-20.4,0-37,16.6-37,37v178.1C0,275.2,16.5,291.8,37,291.8z"/>
		<path d="M251.1,331.9h-25.5h-1.4c-8.5,0-15.4,6.9-15.4,15.4V432c0,8.5,6.9,15.4,15.4,15.4h118.3c8.5,0,15.4-6.9,15.4-15.4v-84.7
			c0-8.5-6.9-15.4-15.4-15.4h-0.4v-18.5c0-30.3-22.4-56.8-52.6-59.7c-32.6-3.1-60.5,21-63.6,52.2c-0.3,3.1,2.1,5.7,5.2,5.7h15.2
			c2.6,0,4.7-1.9,5.1-4.5c2.4-17.3,18.3-30.4,36.8-28c16.5,2.1,28.4,17,28.4,33.6v19.1h-65.5V331.9z M292.5,393.4
			c-1.2,0.9-1.5,1.7-1.5,3.1c0,6.2,0,12.4,0,18.6l0,0c0.1,2.6-1.2,5.1-3.5,6.3c-5.4,2.8-10.9-1.1-10.9-6.3l0,0c0-6.2,0-12.5,0-18.7
			c0-1.3-0.3-2.1-1.4-2.9c-5.6-4.2-7.5-11.2-4.7-17.5c2.7-6.1,9.4-9.6,15.7-8.4c7,1.4,11.9,7.1,12,14.1
			C298.4,386.6,296.4,390.6,292.5,393.4z"/>
	</g>
</g>
<g>
</g>
<g>
</g>
<g>
</g>
<g>
</g>
<g>
</g>
<g>
</g>
<g>
</g>
<g>
</g>
<g>
</g>
<g>
</g>
<g>
</g>
<g>
</g>
<g>
</g>
<g>
</g>
<g>
</g>
</svg>
